<?xml version="1.0" standalone="no"?>
<!DOCTYPE svg PUBLIC "-//W3C//DTD SVG 20010904//EN"
 "http://www.w3.org/TR/2001/REC-SVG-20010904/DTD/svg10.dtd">
<svg version="1.0" xmlns="http://www.w3.org/2000/svg"
 width="2959.000000pt" height="2084.000000pt" viewBox="0 0 2959.000000 2084.000000"
 preserveAspectRatio="xMidYMid meet">

<g transform="translate(0.000000,2084.000000) scale(0.100000,-0.100000)"
fill="#000000" stroke="none">
<path d="M10045 16663 c-1108 -73 -2136 -414 -3045 -1010 -1506 -989 -2512
-2564 -2769 -4338 -71 -486 -81 -1092 -26 -1585 109 -973 450 -1917 989 -2735
765 -1161 1896 -2038 3205 -2486 598 -205 1242 -319 1861 -331 l155 -3 0 150
0 150 -205 7 c-1914 60 -3686 1055 -4755 2668 -275 415 -507 885 -664 1344
-156 456 -246 876 -298 1386 -13 133 -17 264 -17 545 0 385 10 549 55 855 255
1756 1294 3316 2824 4240 867 523 1849 814 2868 847 l197 6 0 149 0 148 -162
-2 c-90 -1 -185 -3 -213 -5z"/>
<path d="M9901 15723 l-43 -4 6 -52 c3 -29 15 -220 28 -424 21 -349 23 -373
41 -373 44 0 502 32 506 35 2 2 0 41 -4 86 l-7 81 -122 -6 c-66 -4 -140 -9
-163 -12 -38 -6 -43 -4 -47 17 -3 13 -12 152 -21 309 -21 381 -14 350 -78 348
-29 -1 -72 -3 -96 -5z"/>
<path d="M9315 15630 c-196 -43 -260 -60 -258 -71 3 -23 175 -814 177 -816 5
-5 521 110 529 117 5 4 1 42 -8 84 -17 74 -18 76 -43 69 -110 -28 -318 -69
-323 -64 -14 13 -41 164 -31 170 6 4 71 19 145 35 l134 28 -16 73 c-9 40 -19
76 -22 80 -4 3 -69 -8 -145 -24 -75 -17 -139 -29 -141 -27 -6 5 -36 166 -32
170 2 1 76 18 164 37 l160 35 -2 39 c-2 22 -8 58 -15 81 l-13 41 -260 -57z"/>
<path d="M11184 15646 c-168 -62 -270 -206 -281 -397 -7 -109 19 -202 76 -279
161 -215 498 -247 685 -66 36 35 86 110 86 129 0 2 -45 12 -100 22 l-100 18
-33 -30 c-54 -52 -94 -68 -172 -67 -83 0 -133 22 -188 83 -44 49 -61 106 -54
187 12 151 132 257 271 239 92 -12 173 -72 199 -149 l14 -41 98 -18 c53 -10
99 -16 102 -14 10 11 -29 154 -53 195 -36 61 -106 128 -165 158 -117 59 -275
71 -385 30z"/>
<path d="M8460 15365 c-77 -19 -365 -140 -363 -151 1 -5 73 -183 159 -395
l158 -386 145 59 c198 81 252 111 311 174 123 130 140 285 54 472 -44 96 -128
181 -211 212 -73 27 -181 34 -253 15z m167 -186 c51 -25 88 -66 120 -136 54
-117 38 -220 -43 -292 -45 -39 -163 -95 -176 -83 -6 7 -188 448 -191 465 -1 5
30 22 68 38 87 35 160 38 222 8z"/>
<path d="M12215 15346 c-130 -41 -233 -142 -282 -276 -61 -166 -24 -330 101
-456 115 -114 288 -167 435 -133 265 61 417 368 303 612 -56 121 -173 218
-306 253 -63 17 -197 17 -251 0z m212 -181 c161 -48 229 -210 152 -364 -47
-93 -122 -141 -221 -141 -134 0 -258 118 -258 245 0 82 55 188 118 227 79 48
130 57 209 33z"/>
<path d="M12970 14628 c-133 -183 -244 -337 -246 -343 -3 -8 126 -115 139
-115 1 0 68 90 147 199 130 180 169 227 155 189 -9 -24 -134 -512 -132 -513 1
-1 28 -21 59 -43 31 -23 60 -42 62 -42 3 0 101 63 217 140 116 78 213 140 214
138 2 -2 -60 -88 -136 -193 -76 -104 -139 -193 -139 -196 0 -6 136 -109 144
-109 8 0 498 679 496 687 -1 4 -43 38 -93 74 l-92 67 -120 -83 c-66 -46 -180
-125 -254 -176 l-134 -92 7 37 c6 32 128 514 142 557 3 12 -20 34 -80 78 -46
33 -91 63 -99 67 -10 3 -88 -96 -257 -328z"/>
<path d="M7465 14853 c-38 -25 -71 -47 -73 -48 -2 -2 99 -157 223 -346 125
-189 230 -350 234 -358 6 -10 27 -1 89 41 l81 54 -187 285 c-103 156 -207 314
-231 352 -24 37 -49 67 -55 67 -6 -1 -42 -21 -81 -47z"/>
<path d="M6973 14482 c-133 -114 -245 -210 -249 -214 -7 -7 85 -128 98 -128 4
0 44 32 90 70 45 39 87 69 93 67 5 -2 101 -110 211 -241 111 -131 209 -245
217 -254 14 -14 22 -10 86 43 39 31 71 60 71 64 0 3 -99 123 -219 265 l-219
259 89 75 c49 41 89 78 89 81 0 9 -101 121 -108 120 -4 0 -116 -94 -249 -207z"/>
<path d="M6397 13912 l-216 -257 27 -22 c15 -13 44 -37 64 -53 l37 -31 77 90
76 90 157 -132 c86 -72 203 -172 260 -221 l105 -89 53 59 c30 32 58 66 63 75
7 13 -37 55 -231 219 -132 111 -249 210 -261 220 l-22 17 78 91 77 92 -33 29
c-18 15 -47 40 -64 54 l-30 25 -217 -256z"/>
<path d="M10125 14154 c-16 -2 -77 -9 -135 -15 -472 -50 -999 -220 -1415 -458
-649 -371 -1177 -926 -1505 -1581 -206 -411 -327 -824 -382 -1305 -20 -170
-16 -629 6 -800 51 -399 138 -721 287 -1069 383 -893 1135 -1625 2039 -1984
324 -129 623 -204 990 -248 194 -24 616 -24 815 0 890 105 1668 487 2282 1119
567 585 914 1308 1029 2147 24 178 30 599 10 800 -106 1110 -671 2085 -1581
2727 -522 368 -1168 604 -1815 663 -104 9 -552 12 -625 4z m703 -953 c321 -49
576 -131 869 -280 670 -340 1176 -941 1407 -1670 85 -269 120 -507 120 -826 1
-317 -28 -525 -109 -805 -266 -908 -1000 -1639 -1914 -1904 -280 -82 -523
-111 -859 -103 -372 8 -643 62 -967 192 -1227 492 -1945 1760 -1734 3065 171
1061 936 1932 1973 2245 137 41 320 79 456 94 52 6 111 13 130 15 97 11 501
-4 628 -23z"/>
<path d="M10250 11185 c0 -3 -12 -64 -26 -136 -14 -72 -23 -133 -20 -136 2 -2
51 27 108 65 l103 69 103 -69 c57 -38 106 -67 109 -65 2 3 -8 66 -23 141 l-27
136 -163 0 c-90 0 -164 -2 -164 -5z"/>
<path d="M10277 10793 c-4 -3 -7 -73 -7 -155 l0 -148 30 0 30 0 0 155 0 155
-23 0 c-13 0 -27 -3 -30 -7z"/>
<path d="M10387 10794 c-4 -4 -7 -74 -7 -156 l0 -148 35 0 36 0 -3 153 -3 152
-25 3 c-14 2 -29 0 -33 -4z"/>
<path d="M10500 10646 l0 -156 30 0 31 0 -3 153 -3 152 -27 3 -28 3 0 -155z"/>
<path d="M10124 10276 c-135 -140 -247 -341 -333 -602 -47 -142 -101 -365
-101 -420 0 -17 -17 -43 -51 -80 l-52 -54 828 0 828 0 -52 54 c-29 32 -51 64
-51 77 0 53 -55 284 -100 420 -86 261 -198 464 -334 605 l-71 74 -220 0 -220
0 -71 -74z"/>
<path d="M9530 8885 l-54 -55 939 0 939 0 -54 55 -54 55 -831 0 -831 0 -54
-55z"/>
<path d="M9575 8768 c-3 -8 -4 -77 -3 -153 l3 -140 30 0 30 0 0 150 0 150 -28
3 c-16 2 -29 -2 -32 -10z"/>
<path d="M9755 8768 c-3 -8 -4 -77 -3 -153 l3 -140 30 0 30 0 0 150 0 150 -28
3 c-16 2 -29 -2 -32 -10z"/>
<path d="M9935 8768 c-3 -8 -4 -77 -3 -153 l3 -140 30 0 30 0 0 150 0 150 -28
3 c-16 2 -29 -2 -32 -10z"/>
<path d="M10115 8768 c-3 -8 -4 -77 -3 -153 l3 -140 30 0 30 0 0 150 0 150
-28 3 c-16 2 -29 -2 -32 -10z"/>
<path d="M10295 8768 c-3 -8 -4 -77 -3 -153 l3 -140 30 0 30 0 0 150 0 150
-28 3 c-16 2 -29 -2 -32 -10z"/>
<path d="M10475 8768 c-3 -8 -4 -77 -3 -153 l3 -140 30 0 30 0 0 150 0 150
-28 3 c-16 2 -29 -2 -32 -10z"/>
<path d="M10655 8768 c-3 -8 -4 -77 -3 -153 l3 -140 30 0 30 0 0 150 0 150
-28 3 c-16 2 -29 -2 -32 -10z"/>
<path d="M10835 8768 c-3 -8 -4 -77 -3 -153 l3 -140 30 0 30 0 0 150 0 150
-28 3 c-16 2 -29 -2 -32 -10z"/>
<path d="M11015 8768 c-3 -8 -4 -77 -3 -153 l3 -140 30 0 30 0 0 150 0 150
-28 3 c-16 2 -29 -2 -32 -10z"/>
<path d="M11195 8768 c-3 -8 -4 -77 -3 -153 l3 -140 30 0 30 0 0 150 0 150
-28 3 c-16 2 -29 -2 -32 -10z"/>
<path d="M9457 8383 c-13 -21 -35 -59 -50 -85 l-28 -48 289 0 289 0 224 85
224 84 -462 1 -463 0 -23 -37z"/>
<path d="M10431 8416 c2 -2 90 -40 195 -85 l192 -81 315 2 315 3 -47 80 -48
80 -463 3 c-255 1 -462 0 -459 -2z"/>
<path d="M10360 8293 c-63 -32 -70 -62 -70 -286 l0 -198 123 3 122 3 3 186 c3
204 -5 249 -48 281 -38 28 -89 32 -130 11z"/>
<path d="M13930 13894 c-173 -140 -321 -261 -329 -269 -12 -12 -9 -20 19 -57
19 -24 45 -55 58 -70 l25 -27 191 154 c105 85 192 152 194 150 2 -2 -55 -108
-128 -235 l-132 -231 39 -46 c21 -26 43 -53 48 -60 8 -11 58 3 249 67 132 44
241 78 244 76 2 -3 -79 -71 -181 -152 l-185 -148 40 -51 c22 -27 48 -60 58
-73 l19 -23 330 266 c182 146 331 268 331 271 0 5 -106 139 -135 172 -9 10
-68 -8 -294 -88 -156 -56 -287 -100 -291 -98 -3 2 62 124 146 273 146 259 151
270 136 290 -61 76 -134 165 -136 164 0 0 -143 -115 -316 -255z"/>
<path d="M5921 13274 c-73 -119 -134 -223 -135 -231 -1 -17 691 -455 709 -450
10 4 299 458 293 461 -2 1 -33 21 -71 44 l-67 42 -33 -52 c-19 -29 -60 -97
-93 -150 -32 -54 -63 -97 -68 -98 -12 0 -146 84 -146 92 0 3 34 61 76 128 41
67 74 123 72 124 -2 1 -33 21 -70 44 l-67 41 -77 -125 c-43 -68 -80 -123 -84
-122 -27 11 -140 85 -140 91 0 4 40 71 89 150 l90 142 -67 42 c-37 24 -69 43
-72 42 -3 0 -65 -97 -139 -215z"/>
<path d="M14620 12945 c-200 -106 -366 -197 -367 -202 -3 -9 230 -459 247
-477 5 -5 39 9 78 30 l71 39 -85 159 c-46 87 -83 160 -82 161 8 7 149 75 155
75 5 0 37 -56 73 -125 36 -69 68 -125 72 -125 11 0 138 71 138 77 0 3 -30 61
-66 130 -36 68 -65 126 -63 128 11 10 137 75 146 75 5 0 45 -66 88 -147 42
-82 78 -149 79 -150 2 -2 133 64 144 72 6 5 -244 469 -253 471 -6 2 -174 -84
-375 -191z"/>
<path d="M5675 12672 c-52 -25 -99 -64 -125 -107 -32 -52 -160 -369 -152 -377
18 -16 776 -318 782 -311 8 10 71 166 67 168 -1 1 -54 23 -117 49 -154 62
-144 54 -124 107 9 24 20 47 23 51 3 4 77 13 163 19 l157 13 39 95 c22 53 36
97 31 99 -5 2 -86 -6 -180 -18 -94 -12 -172 -20 -173 -18 -1 1 -10 29 -20 62
-20 66 -75 129 -141 161 -58 28 -177 32 -230 7z m148 -188 c45 -23 67 -53 67
-96 0 -40 -46 -168 -61 -168 -18 0 -209 83 -209 91 0 5 12 38 26 74 42 105
100 137 177 99z"/>
<path d="M15170 12327 c-102 -34 -281 -93 -397 -131 l-211 -69 29 -85 c16 -47
31 -87 33 -89 2 -3 61 14 131 36 70 23 130 41 134 41 4 0 15 -24 24 -52 l17
-53 -114 -115 -113 -115 30 -95 c17 -52 32 -97 34 -99 1 -2 38 34 80 80 43 46
98 106 123 132 l46 49 53 -33 c46 -29 65 -34 128 -38 126 -6 226 53 272 160
37 85 31 145 -36 355 -32 101 -62 184 -68 183 -5 0 -93 -29 -195 -62z m150
-337 c0 -45 -23 -78 -66 -96 -86 -36 -145 2 -183 119 -13 38 -21 70 -20 72 2
1 54 19 114 38 l110 34 23 -65 c12 -36 22 -82 22 -102z"/>
<path d="M17270 10505 l0 -1775 85 0 85 0 0 1775 0 1775 -85 0 -85 0 0 -1775z"/>
<path d="M20390 12257 c-73 -17 -109 -37 -152 -85 -47 -52 -61 -98 -56 -186 6
-129 69 -189 235 -227 170 -39 206 -65 190 -131 -12 -48 -121 -75 -192 -48
-33 13 -75 58 -75 81 0 17 -9 19 -96 19 l-96 0 7 -32 c23 -113 63 -171 149
-215 43 -23 67 -28 152 -31 163 -7 262 35 320 133 56 96 40 241 -33 306 -47
41 -85 56 -208 84 -156 35 -192 63 -162 125 15 32 83 55 134 45 39 -7 93 -53
93 -79 0 -13 15 -16 96 -16 l96 0 -7 37 c-12 67 -37 113 -82 153 -73 64 -203
92 -313 67z"/>
<path d="M24890 12259 c-122 -21 -257 -115 -309 -217 -101 -198 -45 -443 129
-565 84 -58 169 -80 293 -75 89 3 110 8 167 35 122 59 194 142 232 267 45 148
7 314 -98 426 -58 62 -163 116 -254 130 -74 11 -84 11 -160 -1z m183 -192 c93
-39 147 -127 147 -237 0 -151 -97 -249 -245 -250 -148 0 -244 100 -245 253 0
106 54 194 145 233 39 17 157 18 198 1z"/>
<path d="M18950 11830 l0 -422 208 4 c182 4 214 7 267 26 168 62 255 195 255
392 0 156 -55 272 -163 347 -84 57 -129 66 -359 71 l-208 4 0 -422z m421 223
c77 -43 112 -109 113 -212 1 -89 -14 -139 -57 -188 -48 -55 -97 -73 -199 -73
l-88 0 0 248 c0 137 3 252 8 256 4 5 44 6 89 3 67 -4 92 -10 134 -34z"/>
<path d="M19830 11830 l0 -420 95 0 95 0 0 420 0 420 -95 0 -95 0 0 -420z"/>
<path d="M20880 12170 l0 -79 118 -3 117 -3 3 -337 2 -338 95 0 95 0 0 340 0
340 115 0 115 0 0 80 0 80 -330 0 -330 0 0 -80z"/>
<path d="M21650 11831 l0 -421 95 0 95 0 0 140 0 140 58 0 58 0 69 -140 69
-140 108 0 107 0 -88 156 -88 156 58 57 c84 82 106 169 73 280 -19 64 -70 123
-138 159 -50 26 -55 27 -263 30 l-213 3 0 -420z m401 221 c23 -26 29 -41 29
-80 0 -87 -49 -122 -170 -122 l-70 0 0 121 0 121 91 -4 c88 -3 92 -4 120 -36z"/>
<path d="M22440 11830 l0 -420 270 0 270 0 0 80 0 80 -175 0 -175 0 0 90 0 90
145 0 145 0 0 80 0 80 -145 0 -145 0 0 90 0 90 170 0 170 0 0 80 0 80 -265 0
-265 0 0 -420z"/>
<path d="M23070 12170 l0 -80 115 0 115 0 0 -340 0 -340 95 0 95 0 0 340 0
340 120 0 120 0 0 80 0 80 -330 0 -330 0 0 -80z"/>
<path d="M23810 12170 l0 -80 115 0 115 0 0 -340 0 -340 95 0 95 0 2 338 3
337 118 3 117 3 0 79 0 80 -330 0 -330 0 0 -80z"/>
<path d="M5315 11968 c-13 -39 -153 -633 -150 -636 12 -12 150 -40 155 -31 4
5 17 55 30 110 13 55 27 102 30 104 4 2 154 -32 335 -76 180 -44 329 -78 330
-77 5 6 46 181 43 183 -2 1 -136 35 -298 74 -162 40 -311 76 -331 81 l-37 10
29 112 c15 62 26 114 24 116 -3 3 -143 41 -153 42 -1 0 -4 -6 -7 -12z"/>
<path d="M15203 11489 c-265 -44 -418 -273 -362 -541 26 -123 115 -250 210
-298 41 -22 158 -55 165 -47 4 4 -22 197 -28 202 -2 1 -22 12 -44 23 -81 41
-126 119 -127 217 0 131 77 219 216 245 152 29 282 -70 295 -225 4 -56 1 -72
-22 -119 -17 -35 -39 -63 -62 -76 -30 -19 -34 -26 -29 -53 3 -18 10 -63 16
-102 5 -38 11 -71 13 -72 10 -10 113 57 155 102 114 120 146 295 86 465 -51
145 -176 251 -329 279 -67 12 -79 12 -153 0z"/>
<path d="M5287 11076 c-67 -18 -117 -62 -155 -137 -78 -154 -42 -356 79 -436
37 -24 54 -28 128 -31 75 -3 92 0 131 20 59 32 99 92 133 203 54 174 87 217
145 184 35 -19 52 -54 52 -109 0 -79 -52 -160 -103 -160 -22 0 -24 -6 -32
-109 l-6 -84 57 7 c115 13 207 92 241 205 23 78 22 211 -1 280 -27 79 -94 144
-170 166 -72 21 -146 16 -204 -14 -65 -33 -106 -103 -142 -245 -25 -94 -54
-149 -84 -154 -37 -8 -67 8 -82 43 -30 72 -5 154 56 181 34 15 38 22 44 62 3
25 6 67 6 93 0 56 -6 58 -93 35z"/>
<path d="M23368 10930 c-67 -17 -160 -71 -208 -121 -166 -173 -158 -459 16
-618 112 -102 275 -143 419 -106 138 36 232 111 292 232 32 65 37 86 41 163
10 198 -93 363 -268 432 -62 24 -227 34 -292 18z m249 -206 c71 -44 107 -108
111 -200 5 -87 -7 -128 -54 -183 -51 -59 -103 -83 -183 -83 -151 -1 -251 97
-251 245 0 111 43 187 132 232 47 23 62 26 125 22 58 -3 82 -10 120 -33z"/>
<path d="M18952 10613 l3 -318 27 -50 c35 -66 80 -108 153 -142 52 -23 73 -27
150 -27 153 0 256 60 314 183 l26 56 3 308 3 307 -95 0 -96 0 0 -282 c0 -250
-2 -287 -18 -317 -37 -74 -122 -100 -204 -63 -76 33 -78 44 -78 376 l0 286
-96 0 -95 0 3 -317z"/>
<path d="M19810 10511 l0 -421 95 0 95 0 0 140 0 140 55 0 55 0 70 -140 70
-140 106 0 c58 0 103 3 101 8 -2 4 -41 73 -87 155 l-82 147 46 41 c26 23 56
60 68 82 26 52 35 152 18 212 -17 62 -85 136 -152 166 -49 22 -69 24 -255 27
l-203 4 0 -421z m371 240 c54 -26 74 -102 44 -161 -23 -44 -63 -60 -150 -60
l-75 0 0 121 0 122 78 -5 c42 -3 89 -11 103 -17z"/>
<path d="M20590 10511 l0 -421 213 0 c192 0 216 2 257 21 96 43 144 117 144
219 0 77 -26 136 -76 171 -18 12 -35 24 -37 26 -2 1 11 18 30 37 104 107 65
280 -76 343 -33 14 -76 18 -247 21 l-208 4 0 -421z m374 238 c21 -16 26 -29
26 -62 -1 -74 -35 -97 -144 -97 l-76 0 0 90 0 90 84 0 c69 0 88 -4 110 -21z
m9 -323 c33 -31 42 -66 27 -110 -17 -53 -46 -66 -145 -66 l-85 0 0 100 0 100
89 0 c79 0 91 -2 114 -24z"/>
<path d="M21503 10808 c-67 -201 -231 -682 -238 -701 -7 -16 0 -18 90 -15 l98
3 25 73 24 72 160 -2 161 -3 26 -72 26 -73 97 0 c54 0 98 3 98 8 0 4 -25 77
-54 162 -30 85 -94 271 -142 413 l-89 257 -120 0 -120 0 -42 -122z m213 -230
c26 -79 49 -149 52 -155 3 -10 -21 -13 -102 -13 -58 0 -106 4 -106 8 0 4 20
68 45 142 54 163 53 160 59 160 2 0 26 -64 52 -142z"/>
<path d="M22180 10510 l0 -420 90 0 90 0 2 264 3 264 160 -264 160 -264 107 0
108 0 0 420 0 420 -95 0 -95 0 -2 -264 -3 -264 -160 264 -160 264 -102 0 -103
0 0 -420z"/>
<path d="M14880 10337 l0 -94 188 -6 c103 -4 296 -7 430 -7 l242 0 0 93 0 94
-292 6 c-161 4 -355 7 -430 7 l-138 0 0 -93z"/>
<path d="M5491 10252 l-394 -26 6 -94 c4 -52 8 -96 9 -97 7 -5 838 52 844 57
3 4 2 47 -1 97 l-8 91 -31 -1 c-17 -1 -208 -13 -425 -27z"/>
<path d="M15100 10021 c-71 -22 -125 -57 -175 -112 -91 -99 -130 -209 -123
-352 5 -121 44 -209 126 -290 98 -96 200 -133 348 -125 70 4 94 10 157 41 168
83 257 246 245 448 -15 245 -193 410 -442 408 -49 0 -103 -7 -136 -18z m250
-203 c198 -85 196 -373 -2 -458 -72 -31 -175 -25 -241 13 -94 55 -140 161
-118 269 35 166 199 246 361 176z"/>
<path d="M5501 9864 c-76 -20 -165 -70 -206 -115 -64 -72 -105 -181 -105 -284
0 -35 43 -286 65 -381 5 -21 6 -21 222 21 120 23 307 59 416 80 182 35 197 40
197 59 0 51 -70 359 -93 409 -28 62 -94 138 -148 173 -83 52 -233 69 -348 38z
m237 -200 c78 -32 124 -99 146 -213 l13 -69 -237 -46 c-130 -25 -246 -46 -257
-46 -16 0 -21 11 -31 64 -15 78 -15 110 -1 161 15 55 93 130 156 149 64 20
165 20 211 0z"/>
<path d="M21493 9605 c-133 -36 -223 -106 -278 -218 -89 -180 -60 -373 76
-510 170 -170 461 -171 635 -2 132 130 165 327 84 502 -84 182 -313 283 -517
228z m243 -200 c162 -95 161 -346 -3 -442 -41 -24 -59 -28 -123 -28 -83 0
-134 20 -181 72 -50 53 -64 92 -64 178 0 59 5 89 19 115 34 65 85 108 156 131
46 15 149 2 196 -26z"/>
<path d="M24534 9601 c-154 -44 -267 -163 -304 -320 -16 -67 -8 -190 16 -251
65 -167 206 -266 395 -277 143 -9 259 36 353 138 129 139 153 328 64 504 -30
58 -116 143 -176 174 -101 52 -236 64 -348 32z m243 -189 c46 -24 99 -81 119
-128 20 -48 17 -160 -5 -209 -10 -23 -39 -59 -65 -82 -119 -105 -306 -71 -378
67 -35 65 -39 171 -9 235 23 51 100 120 149 134 53 15 142 7 189 -17z"/>
<path d="M18952 9183 l3 -418 130 -3 c167 -4 299 11 370 43 77 34 156 111 191
188 27 58 29 70 29 192 0 127 -1 132 -33 197 -40 83 -119 158 -200 190 -52 20
-76 23 -275 26 l-217 3 2 -418z m416 229 c89 -47 134 -157 113 -281 -14 -86
-50 -138 -120 -173 -47 -24 -67 -28 -138 -28 l-83 0 0 256 0 256 93 -4 c69 -3
102 -10 135 -26z"/>
<path d="M19830 9180 l0 -420 95 0 95 0 0 420 0 420 -95 0 -95 0 0 -420z"/>
<path d="M20440 9520 l0 -80 120 0 120 0 0 -340 0 -340 95 0 95 0 0 340 0 340
115 0 115 0 0 80 0 80 -330 0 -330 0 0 -80z"/>
<path d="M22200 9180 l0 -420 95 0 95 0 0 145 0 145 55 0 54 0 73 -142 73
-143 103 -3 c56 -1 102 0 102 3 0 4 -39 76 -87 162 -80 145 -85 156 -67 166
28 15 82 75 101 110 22 44 29 156 12 214 -9 34 -28 63 -64 99 -76 76 -108 84
-347 84 l-198 0 0 -420z m396 226 c29 -29 34 -41 34 -81 0 -40 -5 -52 -34 -81
-33 -33 -36 -34 -120 -34 l-86 0 0 115 0 115 86 0 c84 0 87 -1 120 -34z"/>
<path d="M22982 9183 l3 -418 93 -3 92 -3 0 421 0 420 -95 0 -95 0 2 -417z"/>
<path d="M23352 9183 l3 -418 92 -3 93 -3 2 267 3 267 160 -264 160 -264 105
0 105 0 3 418 2 417 -95 0 -95 0 -2 -261 -3 -261 -159 261 -159 261 -109 0
-108 0 2 -417z"/>
<path d="M5914 8520 c-70 -28 -83 -121 -24 -172 34 -31 67 -35 110 -13 35 18
50 43 50 84 0 80 -66 129 -136 101z"/>
<path d="M14823 8498 c-23 -11 -53 -64 -53 -93 0 -25 28 -73 49 -85 11 -5 37
-10 58 -10 55 0 98 44 98 101 0 74 -82 121 -152 87z"/>
<path d="M6469 7614 c-167 -141 -312 -264 -321 -273 -17 -15 -10 -25 102 -157
65 -78 142 -158 170 -179 173 -127 380 -104 546 61 136 135 166 301 83 469
-28 56 -251 335 -269 335 -4 0 -144 -115 -311 -256z m417 -139 c41 -88 27
-167 -44 -247 -68 -75 -132 -108 -213 -108 -80 0 -129 28 -201 112 l-47 55
197 167 197 167 44 -48 c24 -26 55 -70 67 -98z"/>
<path d="M13863 7654 c-87 -114 -158 -210 -158 -215 0 -4 150 -123 334 -264
268 -205 337 -253 346 -243 6 7 78 101 160 208 82 107 152 200 157 207 6 7
-11 26 -51 57 -33 25 -64 46 -69 46 -5 0 -55 -61 -112 -135 -57 -74 -107 -135
-112 -135 -10 0 -124 85 -133 99 -2 5 33 59 80 119 47 61 85 114 85 119 -1 4
-29 29 -62 54 l-62 47 -83 -109 c-46 -59 -88 -111 -93 -114 -14 -9 -141 87
-136 102 3 6 48 69 101 138 80 104 95 128 85 140 -15 18 -105 85 -114 85 -3 0
-76 -93 -163 -206z"/>
<path d="M13393 7155 c-134 -124 -243 -229 -243 -233 1 -4 24 -33 53 -65 l53
-57 87 81 c74 69 90 80 101 68 7 -8 111 -120 231 -249 120 -129 220 -237 221
-238 1 -2 34 27 73 65 l71 68 -230 245 c-126 135 -230 248 -230 252 0 4 36 42
80 84 44 42 80 79 80 83 0 3 -24 32 -53 64 l-52 58 -242 -226z"/>
<path d="M7077 6900 c-148 -175 -268 -322 -267 -327 1 -4 95 -86 208 -182
l206 -174 43 49 c72 81 77 67 -73 193 -74 62 -134 116 -134 119 0 4 26 36 58
71 l58 65 108 -92 c59 -51 111 -92 115 -92 10 0 102 112 99 121 -2 4 -51 49
-111 99 l-107 91 52 64 c29 35 57 64 61 64 5 1 66 -48 137 -108 l128 -110 51
59 c28 32 51 62 50 67 0 10 -395 343 -406 342 -4 0 -129 -143 -276 -319z"/>
<path d="M12987 6824 c-39 -25 -67 -51 -64 -58 3 -6 67 -105 142 -219 76 -115
135 -210 132 -213 -2 -3 -129 54 -282 125 -152 72 -279 131 -281 131 -5 0
-153 -98 -167 -110 -8 -7 19 -50 320 -507 l140 -212 69 46 c38 25 73 49 77 53
5 4 -57 106 -137 227 -80 121 -146 223 -146 226 0 3 128 -56 285 -130 l285
-136 89 59 90 60 -181 274 c-99 151 -203 310 -230 353 -28 42 -55 77 -62 77
-6 0 -42 -21 -79 -46z"/>
<path d="M7665 6424 c-115 -195 -211 -359 -213 -364 -3 -8 428 -270 445 -270
8 0 83 126 83 139 0 4 -63 45 -140 90 -77 46 -138 86 -136 89 2 4 78 134 170
289 91 155 166 285 166 290 0 9 -141 93 -156 93 -5 0 -103 -160 -219 -356z"/>
<path d="M12023 6316 c-257 -62 -413 -305 -349 -541 31 -116 110 -226 199
-278 129 -76 310 -76 457 -2 160 81 264 285 232 455 -49 263 -290 426 -539
366z m187 -197 c99 -45 154 -132 154 -244 0 -84 -23 -135 -84 -188 -105 -90
-254 -84 -346 15 -47 49 -66 95 -72 168 -3 53 0 76 18 118 54 125 209 186 330
131z"/>
<path d="M8760 6295 c0 -2 -54 -185 -120 -407 -66 -221 -118 -403 -117 -404 5
-4 181 -54 182 -51 1 1 19 62 40 135 21 72 39 132 39 132 1 0 37 -11 81 -25
231 -72 392 16 430 237 15 80 -45 202 -125 254 -22 15 -118 50 -217 80 -182
55 -193 57 -193 49z m224 -229 c79 -23 116 -60 116 -116 0 -77 -47 -130 -115
-130 -19 0 -62 8 -95 17 -46 12 -59 20 -56 32 41 144 69 222 79 218 7 -2 39
-12 71 -21z"/>
<path d="M11343 6090 c-62 -9 -114 -18 -116 -21 -2 -2 -30 -138 -63 -301 -32
-164 -62 -294 -67 -289 -5 5 -75 125 -157 267 l-148 259 -33 -1 c-78 -2 -208
-26 -204 -37 2 -7 29 -197 61 -423 l57 -410 84 12 c47 7 88 15 91 19 3 3 -9
111 -27 241 -18 130 -31 238 -28 240 2 3 62 -99 133 -226 l129 -230 60 6 c101
11 95 2 132 175 69 319 76 346 83 319 4 -14 20 -121 36 -237 l29 -213 25 0
c26 0 153 19 157 24 4 4 -106 787 -114 816 l-8 26 -112 -16z"/>
<path d="M9486 6063 c-3 -16 -33 -194 -66 -398 -34 -203 -63 -379 -66 -391 -5
-19 2 -22 88 -35 l93 -15 8 25 c9 32 139 813 135 816 -5 4 -147 25 -167 25
-13 0 -21 -9 -25 -27z"/>
<path d="M9862 5654 c-7 -203 -15 -394 -18 -425 l-6 -56 74 -7 c40 -3 166 -9
281 -12 l207 -7 0 82 c0 58 -4 81 -12 82 -7 0 -86 4 -175 7 -89 4 -164 10
-168 14 -4 4 -4 45 0 91 l7 84 147 -1 146 -1 3 76 3 76 -77 6 c-42 4 -111 7
-152 7 -63 0 -73 2 -68 16 3 9 6 49 6 90 l0 74 175 -7 175 -6 0 80 0 81 -112
6 c-62 3 -183 8 -269 12 l-155 6 -12 -368z"/>
</g>
</svg>
