<?xml version="1.0" standalone="no"?>
<!DOCTYPE svg PUBLIC "-//W3C//DTD SVG 20010904//EN"
 "http://www.w3.org/TR/2001/REC-SVG-20010904/DTD/svg10.dtd">
<svg version="1.0" xmlns="http://www.w3.org/2000/svg"
 width="1737.000000pt" height="925.000000pt" viewBox="0 0 1737.000000 925.000000"
 preserveAspectRatio="xMidYMid meet">

<g transform="translate(0.000000,925.000000) scale(0.100000,-0.100000)"
fill="#000000" stroke="none">
<path d="M8712 9228 c35 -31 48 -59 48 -104 0 -46 -34 -99 -73 -115 -76 -32
-176 29 -178 108 l-1 38 -13 -30 c-8 -16 -14 -39 -14 -50 -1 -37 19 -94 44
-123 l24 -28 -30 -18 c-35 -21 -49 -51 -49 -106 0 -41 35 -94 68 -105 13 -4
19 -17 20 -48 1 -23 7 -126 13 -229 6 -103 9 -194 6 -202 -5 -13 -24 -16 -95
-16 l-90 0 -30 113 c-17 61 -45 167 -62 235 l-30 123 26 22 c51 44 27 152 -40
184 l-34 16 24 22 c81 75 67 216 -28 278 -55 35 -74 35 -38 -2 70 -70 41 -183
-54 -209 -90 -25 -169 44 -156 138 1 11 -1 12 -10 3 -18 -17 -24 -96 -11 -136
13 -37 40 -71 81 -100 13 -9 20 -17 14 -17 -6 0 -20 -9 -32 -20 -46 -43 -18
-146 48 -177 36 -17 41 -25 71 -108 18 -49 56 -153 86 -229 29 -76 52 -141 50
-143 -2 -2 -40 -6 -83 -9 l-79 -6 -61 108 c-131 231 -177 325 -165 337 32 32
-1 129 -56 163 -15 10 -30 19 -32 21 -3 2 5 13 17 26 85 91 36 263 -84 293
l-28 7 33 -29 c57 -51 53 -150 -8 -193 -39 -28 -84 -34 -122 -18 -49 20 -69
48 -78 104 l-7 48 -12 -33 c-11 -33 -11 -33 -41 -17 -46 23 -55 18 -20 -13 25
-23 32 -38 36 -78 14 -167 -220 -195 -246 -29 l-8 50 -12 -43 c-16 -56 -6
-107 32 -161 l30 -44 -31 -29 c-27 -23 -41 -28 -83 -28 -45 0 -55 4 -85 34
-23 23 -36 47 -41 77 -6 39 -8 41 -14 19 -37 -130 44 -244 172 -242 55 1 60
-1 106 -44 26 -25 116 -109 199 -186 l152 -141 -33 -32 c-19 -17 -37 -43 -40
-57 -10 -41 20 -94 66 -115 l38 -18 1 -81 0 -81 -40 -16 c-30 -11 -44 -25 -55
-51 -29 -69 7 -132 93 -160 48 -16 203 -45 251 -47 16 -1 9 -4 -19 -10 -65
-11 -486 -11 -615 1 -130 12 -265 32 -395 59 -52 11 -95 19 -96 18 -4 -6 -67
-438 -88 -607 -64 -508 -61 -1028 9 -1430 115 -670 397 -1333 792 -1866 206
-277 493 -568 768 -779 90 -70 281 -198 366 -247 l46 -27 114 72 c266 169 452
319 684 551 502 504 861 1126 1065 1846 184 653 206 1240 79 2120 -51 353 -53
365 -69 364 -8 -1 -91 -16 -185 -33 -224 -41 -352 -51 -635 -50 -242 0 -326
10 -217 23 61 8 162 38 209 62 81 42 77 165 -7 195 l-35 13 0 83 0 83 34 14
c43 18 66 51 66 96 0 44 -21 75 -66 98 l-35 18 83 76 c46 42 110 102 143 133
33 31 83 71 110 89 28 18 57 45 65 60 11 21 19 26 35 21 88 -27 111 -27 175 5
54 27 83 75 88 141 5 71 -17 121 -71 160 -48 35 -83 41 -48 8 42 -40 52 -98
26 -153 -30 -64 -118 -86 -183 -46 l-33 20 40 38 c95 91 71 250 -46 298 -43
18 -53 18 -25 -2 12 -8 29 -28 37 -44 69 -133 -107 -255 -206 -143 -28 33 -30
40 -23 77 23 120 -20 211 -116 241 -24 8 -23 6 8 -29 27 -31 32 -45 32 -86 0
-167 -246 -165 -251 2 -1 32 -1 32 -15 -12 -16 -50 -11 -89 16 -137 l18 -32
-28 -10 c-23 -8 -90 -63 -90 -74 0 -1 -4 -16 -9 -33 -6 -23 -5 -40 6 -62 14
-28 13 -33 -10 -74 -13 -24 -43 -79 -67 -123 -23 -44 -67 -123 -97 -176 l-56
-97 -81 5 c-44 3 -83 7 -85 9 -2 2 12 46 32 97 59 153 127 342 127 355 0 6 16
18 36 27 44 18 71 49 84 98 12 41 7 69 -16 92 -14 13 -12 18 16 41 90 76 83
215 -13 285 -22 16 -49 29 -59 29 -16 0 -15 -4 11 -26 76 -64 49 -187 -48
-214 -84 -23 -161 38 -161 126 0 36 -10 25 -20 -23 -11 -47 1 -107 30 -145 12
-16 20 -31 18 -32 -1 -1 -16 -10 -31 -20 -67 -42 -88 -136 -41 -183 l26 -26
-59 -236 -59 -236 -97 0 -97 0 0 30 c0 17 5 126 12 243 l12 213 28 15 c36 19
58 62 58 114 0 33 -6 48 -30 72 -26 26 -28 32 -16 42 31 24 56 81 56 129 0 85
-37 141 -115 172 l-40 16 27 -23z m1147 -495 c9 -19 9 -23 -2 -23 -18 0 -84
-69 -96 -102 -6 -15 -8 -34 -5 -43 6 -15 -67 -115 -219 -298 -74 -89 -94 -108
-111 -103 -12 3 -40 6 -63 6 -24 0 -43 3 -43 8 0 4 61 99 135 212 88 134 145
209 163 218 59 31 102 87 102 136 0 20 9 29 44 44 24 11 47 26 51 33 6 8 12
-1 20 -27 6 -21 17 -49 24 -61z m-2234 47 c17 0 20 -16 5 -25 -18 -11 -11 -71
13 -106 12 -19 40 -43 61 -54 28 -14 53 -43 89 -100 28 -44 86 -134 129 -199
43 -66 76 -121 73 -124 -3 -3 -31 -8 -63 -10 l-57 -4 -111 138 c-176 222 -175
220 -178 263 -3 42 -35 90 -73 112 l-22 12 30 34 c16 19 32 48 36 64 5 28 7
29 29 14 13 -8 30 -15 39 -15z m-245 -150 c0 -43 50 -109 96 -127 12 -4 68
-62 124 -128 56 -66 125 -143 152 -171 48 -49 49 -51 26 -57 -62 -17 -70 -12
-221 142 -86 88 -147 158 -147 169 0 11 -18 40 -41 65 -38 44 -40 48 -25 69 9
12 16 30 16 40 0 10 5 18 10 18 6 0 10 -9 10 -20z m2673 -7 c3 -16 5 -28 4
-28 -1 -1 -19 -14 -41 -29 -23 -17 -47 -48 -59 -75 -21 -49 -130 -168 -257
-280 -72 -64 -78 -67 -118 -63 -24 2 -42 8 -40 12 2 5 41 51 88 102 115 127
193 217 203 235 5 7 27 21 49 30 39 16 98 81 98 110 0 8 12 13 34 13 29 0 34
-4 39 -27z m-1388 -469 c-457 -45 -810 -100 -933 -146 -51 -19 -54 -19 -73 -2
-10 9 -19 27 -19 39 0 46 23 52 240 69 565 43 1094 70 785 40z m-180 -189 c38
-37 35 -95 -7 -130 -26 -22 -39 -26 -66 -21 -44 7 -70 31 -78 71 -6 35 8 71
35 92 28 22 89 16 116 -12z m533 3 c83 -90 -42 -214 -128 -128 -29 29 -27 94
5 125 32 33 93 34 123 3z m-258 -18 c33 -17 60 -34 60 -39 0 -5 -29 -24 -64
-42 l-63 -33 -66 35 c-37 19 -67 38 -67 42 0 7 115 65 133 66 4 1 34 -13 67
-29z m-785 -25 c33 -32 33 -84 1 -122 -19 -22 -32 -28 -66 -28 -73 0 -110 67
-75 135 17 33 27 38 78 39 28 1 45 -6 62 -24z m1560 -1 c33 -35 33 -84 1 -121
-19 -22 -32 -28 -66 -28 -53 0 -90 38 -90 91 0 78 102 116 155 58z m-218 -6
c18 -14 16 -53 -2 -68 -18 -15 -182 -5 -202 12 -17 13 -17 50 0 67 14 16 183
7 204 -11z m-1047 -3 c18 -22 4 -64 -23 -69 -12 -3 -57 -7 -99 -10 -82 -6
-108 5 -108 43 0 37 31 48 141 50 57 1 80 -3 89 -14z m508 -132 c-10 -2 -26
-2 -35 0 -10 3 -2 5 17 5 19 0 27 -2 18 -5z m-98 -10 c-568 -59 -805 -98 -991
-159 -21 -7 -49 22 -49 51 0 37 35 52 140 59 52 4 120 9 150 12 147 15 596 41
685 41 55 0 84 -2 65 -4z m527 -163 c182 -11 332 -26 342 -35 10 -11 -19 -28
-61 -36 -93 -19 -407 -22 -550 -5 -173 20 -317 20 -488 0 -215 -26 -595 -5
-607 33 -6 17 86 33 253 42 221 12 907 13 1111 1z m-59 -205 c333 -44 524 -55
782 -45 222 9 330 21 473 49 51 10 93 18 94 17 12 -11 80 -526 97 -739 51
-633 16 -1062 -130 -1588 -262 -947 -828 -1754 -1599 -2278 -189 -128 -156
-124 -287 -37 -709 466 -1235 1138 -1546 1976 -116 315 -203 674 -242 1010
-27 235 -22 694 11 1020 17 168 81 615 90 624 5 5 63 0 141 -13 73 -12 147
-24 165 -27 17 -2 128 -9 246 -13 308 -13 466 -2 937 64 52 7 188 13 301 14
183 1 237 -3 467 -34z"/>
<path d="M7683 7195 c-3 -9 -3 -32 0 -51 6 -36 1 -37 -36 -6 -21 19 -26 14
-31 -26 -5 -46 24 -100 86 -159 60 -57 68 -78 68 -185 0 -38 5 -62 16 -72 35
-36 43 -128 22 -274 -13 -96 -7 -107 74 -148 55 -28 71 -30 88 -9 7 8 23 15
37 15 13 0 35 12 50 26 14 14 27 23 30 20 3 -3 0 -41 -7 -85 -7 -45 -10 -90
-7 -102 3 -12 3 -35 0 -52 -6 -29 -7 -29 -54 -24 -27 3 -77 18 -111 32 -41 18
-89 29 -139 32 -71 5 -77 4 -101 -20 -14 -14 -28 -31 -29 -36 -3 -6 -53 -11
-129 -11 -112 -1 -129 -4 -160 -24 -19 -12 -56 -32 -81 -44 -25 -13 -64 -44
-86 -70 -54 -64 -155 -233 -149 -249 7 -16 182 -18 254 -2 54 11 72 34 72 93
0 24 8 40 33 62 19 16 36 35 38 42 6 19 77 33 128 26 l44 -7 -7 -96 c-3 -53
-9 -128 -12 -167 l-6 -71 36 -29 c26 -21 36 -37 36 -57 0 -15 9 -53 19 -85 10
-31 22 -73 26 -92 7 -36 49 -100 65 -100 11 0 121 164 140 209 8 21 10 38 4
46 -5 7 -22 29 -38 50 -30 37 -34 50 -35 116 -1 21 -12 52 -26 73 -20 29 -25
49 -25 96 0 33 2 60 5 60 3 0 28 -11 57 -25 50 -24 101 -67 251 -210 40 -38
116 -99 170 -135 l97 -65 0 -48 c0 -58 26 -107 117 -218 l62 -76 -49 -6 c-86
-10 -131 -29 -151 -61 -33 -54 -52 -162 -53 -306 -1 -116 -10 -172 -29 -181
-1 -1 -98 -7 -215 -14 -170 -10 -217 -16 -240 -30 -49 -32 -312 -288 -312
-305 0 -14 42 -29 115 -42 70 -12 91 -12 161 2 46 10 53 15 69 49 16 37 20 39
76 45 53 6 64 12 104 53 l45 46 183 -7 c100 -4 219 -9 265 -12 71 -5 86 -4
103 12 36 33 58 96 58 166 -1 43 5 78 16 99 17 34 83 109 96 109 4 0 10 -11
13 -25 4 -17 -3 -40 -23 -78 -34 -59 -49 -147 -32 -189 22 -58 117 -82 152
-39 l18 22 16 -38 c9 -21 24 -62 33 -91 16 -51 23 -58 121 -130 194 -143 202
-155 181 -259 -22 -106 -121 -301 -188 -371 -34 -37 -35 -39 -53 -187 -22
-183 -22 -185 -6 -185 30 0 137 63 193 114 l59 54 -3 85 -2 85 51 33 c64 41
89 80 89 141 0 39 8 57 47 115 134 196 153 225 153 239 0 7 -20 43 -45 80 -25
36 -45 75 -45 86 0 33 63 136 129 213 73 84 109 156 125 250 9 52 17 71 29 73
9 2 17 11 17 21 0 10 37 56 83 104 47 49 95 111 112 144 26 50 30 69 29 138 0
117 -34 202 -153 390 -215 340 -237 389 -229 524 4 58 7 66 41 97 39 36 66 41
128 24 32 -9 38 -16 48 -55 15 -59 14 -75 -4 -75 -8 0 -15 -7 -15 -15 0 -9 9
-15 21 -15 18 0 20 -5 16 -34 -5 -41 14 -91 42 -106 15 -7 21 -20 20 -43 -1
-51 23 -122 47 -140 23 -17 23 -17 29 17 5 25 14 38 36 46 22 9 32 23 42 59
l13 46 64 -3 c50 -3 68 -8 79 -23 18 -25 25 -24 40 7 11 25 9 29 -30 65 -31
29 -39 42 -34 58 3 11 -1 48 -10 82 -23 92 -16 92 60 -5 l24 -30 7 29 c8 32
-7 119 -28 163 -11 22 -21 28 -61 32 -39 4 -50 10 -66 35 -14 23 -35 36 -87
54 -38 13 -71 27 -74 30 -3 4 -37 16 -76 29 -178 56 -317 -3 -396 -168 -39
-82 -47 -174 -24 -274 18 -74 104 -253 225 -466 80 -141 108 -206 115 -277 12
-99 -41 -160 -122 -143 -58 13 -145 114 -214 246 -100 192 -122 269 -137 469
-10 133 -102 621 -132 702 -33 86 -68 127 -265 309 -219 203 -308 273 -419
331 -144 75 -361 103 -616 79 l-97 -9 -72 42 c-39 22 -74 41 -76 41 -3 0 -7
-7 -11 -15z m102 -146 c16 -15 26 -31 22 -36 -11 -10 -97 81 -97 103 0 12 6 9
23 -12 12 -16 35 -41 52 -55z m549 25 c21 -20 20 -75 0 -100 -15 -19 -16 -19
-8 1 16 44 16 82 1 88 -25 9 -82 -11 -107 -38 -27 -29 -23 -31 27 -10 19 8 39
15 44 15 19 0 -6 -32 -45 -60 -33 -22 -53 -28 -87 -27 l-44 2 40 35 c22 20 54
47 71 61 17 13 29 30 26 37 -6 18 63 15 82 -4z m-184 -39 c-36 -19 -69 -34
-75 -34 -5 0 19 15 55 34 36 19 70 34 75 34 6 0 -19 -15 -55 -34z m-426 -53
c17 -14 22 -32 7 -32 -12 0 -91 89 -91 102 0 5 15 -6 34 -24 18 -18 41 -39 50
-46z m335 12 c10 -9 -35 -3 -49 6 -11 8 -7 9 15 4 17 -4 32 -8 34 -10z m232
-60 c-14 -18 -21 -41 -21 -71 0 -33 -3 -42 -12 -36 -7 4 -23 6 -36 4 -12 -1
-41 4 -65 12 -23 8 -58 20 -77 26 -31 9 -28 10 25 5 58 -5 63 -3 130 40 39 24
71 45 73 45 2 1 -6 -11 -17 -25z m-203 -1 c-10 -2 -28 -2 -40 0 -13 2 -5 4 17
4 22 1 32 -1 23 -4z m-148 -108 c-9 -11 -9 -15 -1 -15 7 0 5 -9 -5 -25 -21
-32 -14 -39 20 -24 22 10 29 9 46 -6 11 -10 20 -29 20 -42 0 -12 6 -23 13 -23
23 -1 -27 -30 -52 -30 -22 0 -61 25 -61 39 0 15 54 10 66 -6 12 -17 13 -17 19
-1 17 43 -45 79 -75 43 -7 -9 -15 -13 -18 -11 -2 3 -18 -2 -34 -10 -17 -9 -32
-13 -35 -11 -2 3 5 10 16 17 12 6 28 27 36 47 15 35 42 73 53 73 2 0 -1 -7 -8
-15z m89 -29 c13 -14 21 -31 18 -38 -4 -9 -6 -8 -6 3 -1 21 -30 46 -61 52
l-25 4 26 2 c15 0 34 -9 48 -23z m597 -190 c-31 -74 -89 -146 -184 -226 -174
-149 -192 -173 -193 -259 -1 -67 -13 -86 -30 -48 -9 20 -7 38 10 88 30 92 49
118 137 190 119 97 221 205 246 260 26 55 37 51 14 -5z m-329 -26 c-7 -66 -16
-86 -58 -140 -40 -52 -63 -132 -60 -219 2 -113 15 -149 76 -216 60 -66 72
-108 35 -120 -52 -17 -262 54 -340 115 l-25 19 49 -14 c27 -8 57 -15 66 -15
30 0 51 67 54 175 6 167 28 231 96 283 53 40 100 114 100 160 0 17 3 32 6 32
4 0 4 -27 1 -60z m183 9 c-15 -54 -66 -122 -164 -216 -41 -39 -84 -88 -95
-110 -24 -44 -29 -20 -7 32 23 54 64 103 137 161 50 40 74 68 100 118 18 35
35 63 37 61 2 -1 -2 -23 -8 -46z m330 -39 c-5 -16 -18 -42 -29 -57 -25 -35
-241 -250 -241 -240 0 22 70 114 133 173 40 38 86 88 103 111 34 50 46 54 34
13z m-875 -70 c3 -5 1 -10 -4 -10 -6 0 -11 5 -11 10 0 6 2 10 4 10 3 0 8 -4
11 -10z m-4 -73 c-6 -15 -15 -27 -21 -27 -16 0 -12 37 5 44 8 3 16 13 16 23 1
15 2 15 6 2 2 -8 -1 -28 -6 -42z m50 -77 c-48 -22 -77 -25 -86 -10 -4 7 2 9
17 5 13 -3 37 1 53 9 17 9 37 16 45 16 8 0 -5 -9 -29 -20z m1752 -157 c-15
-21 -36 -44 -46 -51 -32 -24 -57 -88 -58 -149 0 -49 -2 -54 -10 -33 -6 14 -9
53 -7 86 5 80 47 153 98 171 52 18 53 16 23 -24z m263 -45 c16 -30 18 -76 5
-96 -5 -9 -10 4 -13 38 -3 30 -14 63 -27 80 -11 16 -21 32 -21 36 0 13 42 -31
56 -58z m79 -8 c3 -11 27 -29 52 -40 25 -11 44 -23 41 -26 -6 -5 -108 42 -108
50 0 3 -3 11 -6 20 -3 9 -1 16 4 16 6 0 13 -9 17 -20z m-891 -167 c-33 -103
-88 -181 -185 -263 -67 -55 -129 -96 -129 -85 0 3 43 51 95 106 98 102 161
189 211 292 38 78 42 56 8 -50z m930 20 c-11 -41 -6 -94 12 -121 9 -13 13 -26
10 -30 -22 -21 -57 99 -43 146 6 17 14 32 20 32 5 0 6 -11 1 -27z m-2407 -47
c96 -26 276 -145 410 -272 67 -63 138 -121 157 -129 56 -24 193 -30 245 -11
50 18 91 21 91 6 0 -6 -8 -13 -17 -17 -120 -41 -190 -95 -178 -140 13 -53 153
-256 214 -310 20 -18 65 -53 101 -77 36 -24 73 -53 84 -64 l19 -21 43 38 c60
53 118 68 187 50 76 -21 70 -42 -14 -51 -144 -14 -165 -52 -156 -276 4 -81 13
-174 22 -206 8 -32 14 -60 12 -62 -3 -4 -98 228 -116 284 -5 18 -7 40 -4 48
11 28 -30 0 -77 -53 -59 -66 -80 -115 -80 -190 0 -70 -12 -108 -43 -141 -21
-23 -25 -23 -122 -16 -55 5 -179 7 -275 6 l-175 -3 -35 -40 c-32 -36 -41 -40
-96 -45 -60 -6 -62 -7 -82 -49 -17 -36 -26 -43 -59 -48 -21 -4 -46 -7 -57 -7
-21 0 -18 6 48 84 37 45 38 47 20 61 -30 21 -13 25 56 14 60 -9 64 -9 89 14
66 61 62 61 299 54 247 -8 323 0 360 37 23 22 24 30 23 127 -1 92 2 110 25
159 27 58 79 120 101 120 18 0 17 1 -16 62 -46 83 -131 198 -186 252 -27 27
-71 81 -97 120 -42 62 -48 78 -48 123 0 43 -4 55 -22 67 -91 62 -245 182 -257
199 -9 12 -25 30 -36 39 -11 10 -49 44 -85 77 -36 33 -100 78 -142 101 l-78
42 0 -85 c0 -70 3 -87 19 -101 21 -19 41 -87 41 -139 0 -24 10 -45 35 -74 40
-47 41 -55 16 -102 l-18 -33 -26 44 c-14 24 -29 58 -33 74 -4 16 -12 32 -17
35 -6 5 -6 23 2 52 21 85 11 120 -34 120 -36 0 -41 18 -21 88 9 32 16 74 16
93 l0 34 -107 14 c-150 19 -182 12 -244 -54 -40 -43 -49 -59 -49 -88 0 -53
-17 -69 -77 -77 -62 -7 -63 -4 -26 72 21 43 32 55 50 55 19 0 23 5 23 30 0 23
7 33 33 46 17 9 42 26 55 37 40 37 182 38 309 3z m2286 -36 c30 0 38 -4 43
-24 6 -25 -19 -95 -39 -108 -9 -6 -5 -14 12 -29 23 -19 23 -20 5 -33 -10 -8
-22 -13 -25 -10 -3 2 -9 29 -12 61 -5 45 -12 63 -30 79 -32 28 -47 56 -47 90
l0 28 28 -27 c20 -19 39 -27 65 -27z m-818 -182 c-10 -29 -24 -66 -33 -83 -30
-60 -173 -193 -252 -235 -24 -13 -24 -12 -10 6 8 10 55 62 105 114 50 52 115
132 145 177 30 45 56 80 58 78 2 -2 -4 -28 -13 -57z m61 -139 c-9 -34 -29 -85
-44 -112 -29 -53 -118 -134 -194 -176 -38 -22 -32 -13 62 85 83 86 113 126
145 190 22 44 41 79 43 78 2 -1 -4 -30 -12 -65z m690 -199 c68 -116 88 -181
89 -280 0 -114 -22 -159 -132 -266 -46 -45 -83 -88 -83 -97 0 -8 -9 -17 -20
-20 -29 -7 -26 29 5 76 18 26 33 37 51 37 64 0 146 157 146 281 0 120 -36 216
-150 398 -40 63 -72 119 -72 125 0 12 102 -144 166 -254z m-196 -830 c-24 -73
-53 -121 -113 -188 -57 -64 -117 -163 -123 -204 -6 -33 3 -51 67 -137 28 -38
22 -52 -62 -158 -86 -109 -119 -175 -119 -240 0 -42 -5 -53 -32 -80 -18 -17
-52 -41 -76 -53 -28 -13 -42 -26 -38 -35 2 -7 8 -41 12 -74 5 -51 3 -65 -16
-95 -12 -20 -29 -40 -38 -45 -16 -8 -17 2 -14 112 2 67 7 125 10 128 4 3 29
14 55 23 56 21 72 42 93 121 15 60 49 125 115 226 44 66 69 122 69 156 0 25
-53 137 -70 148 -5 3 -10 18 -10 32 0 19 29 55 114 142 110 113 147 167 176
254 6 21 14 36 16 34 3 -3 -4 -33 -16 -67z"/>
<path d="M782 1948 c-306 -39 -582 -292 -691 -632 -41 -128 -55 -237 -48 -380
24 -509 390 -915 827 -916 127 0 246 42 363 129 29 21 67 46 85 55 31 16 36
16 57 2 15 -10 26 -29 30 -53 10 -61 12 -63 55 -63 l40 0 -2 328 -3 327 -33 1
c-41 0 -48 -12 -55 -96 -24 -295 -266 -540 -532 -540 -324 0 -495 304 -495
877 0 255 38 471 110 618 94 196 243 278 457 253 136 -16 286 -117 375 -252
43 -67 88 -197 88 -256 0 -60 7 -70 51 -70 l39 0 0 300 0 300 -39 0 c-41 0
-51 -11 -51 -54 0 -13 -8 -30 -18 -39 -33 -30 -70 -20 -166 42 -114 73 -138
85 -206 104 -77 22 -153 26 -238 15z"/>
<path d="M9662 1633 l3 -288 43 -3 c40 -3 42 -2 42 25 1 91 22 237 40 285 47
127 170 177 433 178 l97 0 0 -835 0 -835 -120 -1 c-66 -1 -125 -2 -132 -3 -15
-1 -19 -54 -6 -79 8 -16 36 -17 416 -15 l407 3 0 45 0 45 -128 0 -127 0 0 839
0 839 143 -6 c279 -11 363 -62 402 -242 8 -38 16 -108 17 -155 l3 -85 43 -3
42 -3 0 290 0 291 -810 0 -810 0 2 -287z"/>
<path d="M11703 1490 c-221 -44 -416 -236 -492 -484 -86 -280 -13 -593 182
-786 124 -122 255 -181 407 -183 395 -4 704 424 626 869 -67 384 -394 648
-723 584z m244 -103 c96 -49 162 -161 200 -338 25 -119 25 -449 0 -568 -29
-136 -63 -208 -132 -277 -69 -69 -120 -89 -220 -87 -214 3 -333 199 -351 578
-14 282 43 528 149 635 68 70 122 91 227 86 57 -2 87 -9 127 -29z"/>
<path d="M16587 1484 c-106 -25 -185 -72 -278 -164 -93 -92 -143 -170 -184
-289 -97 -276 -27 -604 170 -806 241 -247 586 -252 827 -11 144 143 219 329
220 546 1 227 -71 409 -223 560 -149 150 -344 210 -532 164z m260 -92 c63 -33
111 -87 150 -167 107 -226 107 -685 0 -914 -62 -134 -152 -194 -287 -194 -197
1 -306 142 -351 452 -19 136 -7 403 24 524 45 172 122 279 226 312 66 21 184
14 238 -13z"/>
<path d="M5325 1478 c-3 -7 -102 -303 -220 -657 -118 -354 -222 -652 -231
-662 -13 -15 -31 -19 -81 -19 l-63 0 0 -40 0 -40 220 0 220 0 0 40 0 39 -87 3
-88 3 -2 30 c-2 17 19 95 45 175 l48 145 190 0 189 0 57 -165 c31 -91 57 -171
57 -177 1 -10 -22 -13 -84 -13 l-85 0 0 -40 0 -40 305 0 305 0 0 40 0 40 -85
0 c-47 0 -85 2 -85 3 0 2 -27 82 -60 178 -34 96 -138 398 -232 672 l-172 497
-28 0 c-16 0 -31 -6 -33 -12z m-44 -896 c-85 -1 -156 0 -159 2 -3 4 112 376
144 466 3 8 43 -93 88 -225 l81 -240 -154 -3z"/>
<path d="M5853 1463 c-14 -5 -19 -699 -4 -721 4 -8 17 -12 27 -10 13 2 34 50
85 198 l68 195 0 172 1 173 -82 -1 c-46 -1 -88 -3 -95 -6z"/>
<path d="M12640 1431 l0 -41 98 0 97 0 -2 -622 -1 -622 -84 2 c-46 1 -89 -1
-96 -6 -8 -6 -12 -23 -10 -43 l3 -34 315 0 315 0 1 38 c2 46 -12 51 -121 45
l-75 -4 0 304 0 305 99 -6 c125 -6 183 -33 217 -100 8 -15 24 -98 35 -185 35
-276 59 -335 156 -379 45 -21 72 -26 137 -27 80 0 181 18 191 35 3 4 -1 21 -9
37 l-15 30 -46 -16 c-55 -18 -90 -7 -105 33 -5 14 -19 101 -30 193 -11 92 -27
190 -35 218 -28 94 -97 165 -189 194 l-40 13 63 22 c107 39 175 98 214 184 16
36 19 60 15 130 -9 171 -87 266 -263 319 -40 12 -131 16 -442 19 l-393 5 0
-41z m708 -71 c99 -43 137 -113 137 -255 0 -191 -93 -271 -322 -278 l-83 -2 0
284 0 284 108 -5 c82 -4 119 -10 160 -28z"/>
<path d="M13960 1430 l0 -40 90 0 90 0 0 -619 c0 -617 0 -619 -21 -624 -11 -3
-36 -3 -54 0 -19 3 -50 2 -69 -1 -33 -6 -36 -10 -36 -40 0 -21 6 -36 15 -39 8
-4 142 -5 297 -4 l283 2 3 34 c2 20 -2 37 -10 43 -7 4 -47 8 -88 7 l-75 -2 -3
621 -2 622 90 0 90 0 0 40 0 40 -300 0 -300 0 0 -40z"/>
<path d="M14650 1430 l0 -40 95 0 95 0 0 -577 c0 -318 -3 -595 -6 -615 -8 -44
-20 -50 -113 -53 l-66 -3 -3 -34 c-2 -28 1 -36 17 -41 27 -7 402 -8 424 -1 12
4 17 16 17 42 l0 37 -82 3 c-49 1 -88 8 -95 15 -9 9 -13 145 -15 560 -2 301 0
547 3 547 3 0 58 -73 122 -162 64 -90 191 -266 283 -393 91 -126 207 -286 257
-355 216 -299 223 -307 254 -305 l28 1 3 654 c1 462 5 657 13 667 8 9 36 13
90 13 l79 0 0 40 0 40 -225 0 -225 0 0 -40 0 -40 78 0 c42 0 84 -5 92 -10 13
-8 15 -70 18 -435 2 -285 -1 -424 -7 -420 -9 5 -198 260 -258 348 -12 18 -113
158 -225 312 l-204 280 -222 3 -222 2 0 -40z"/>
<path d="M1680 1426 c0 -42 14 -48 108 -45 l67 3 3 -622 2 -622 -90 0 -90 0 0
-40 0 -40 301 0 300 0 -3 38 -3 37 -87 3 -88 3 0 619 0 620 59 0 c32 0 73 3
90 6 27 6 31 10 31 40 l0 34 -300 0 -300 0 0 -34z"/>
<path d="M2330 1237 l0 -223 39 -1 38 -2 6 93 c7 117 22 168 62 209 42 43 96
58 233 66 l112 6 0 -622 0 -623 -95 0 c-52 0 -96 -3 -96 -7 -1 -5 -3 -23 -5
-40 l-2 -33 318 0 c310 0 319 1 325 20 3 11 3 29 0 40 -6 18 -15 20 -101 20
l-94 0 0 623 0 622 121 -7 c198 -11 254 -51 279 -199 5 -35 10 -87 10 -115 l0
-52 40 0 40 -1 0 225 0 224 -615 0 -615 0 0 -223z"/>
<path d="M3620 1234 l0 -225 38 3 37 3 6 101 c6 116 33 185 86 220 39 26 127
42 238 45 l80 2 3 -621 2 -622 -100 0 -100 0 0 -40 0 -40 320 0 320 0 0 40 0
40 -100 0 -100 0 0 621 0 621 118 -5 c64 -3 135 -10 157 -17 85 -26 133 -115
136 -250 1 -93 4 -100 45 -100 l34 0 0 225 0 225 -610 0 -610 0 0 -226z"/>
<path d="M6940 1426 c0 -42 10 -46 106 -46 l74 0 0 -620 0 -619 -87 -3 -88 -3
-3 -38 -3 -38 393 3 393 3 80 28 c114 40 180 82 255 157 266 271 248 788 -35
1048 -76 70 -162 115 -269 142 -72 18 -112 20 -448 20 l-368 0 0 -34z m714
-80 c92 -35 157 -85 205 -157 75 -112 108 -277 98 -489 -11 -219 -61 -355
-168 -455 -85 -78 -142 -97 -306 -103 l-133 -4 0 623 0 624 118 -7 c90 -5 133
-12 186 -32z"/>
<path d="M8360 1426 c0 -41 15 -48 93 -46 28 1 59 1 67 1 13 -1 15 -77 15
-621 l0 -620 -87 0 -88 0 0 -40 0 -40 298 0 299 0 1 40 2 40 -90 0 -90 0 0
623 0 622 76 -2 c42 -1 81 0 88 3 7 3 13 20 14 39 l3 35 -301 0 -300 0 0 -34z"/>
</g>
</svg>
